# xmcd
#
# Track frame offsets: 
#        150
#        13175
#        23337
#        35812
#        50007
#        58600
#        72007
#        86125
#        96580
#        110200
#
# Disc length: 1650 seconds
#
# Revision: 0
# Processed by: cddbd v1.5.2PL0 Copyright (c) Steve Scherf et al.
# Submitted via: ExactAudioCopy v1.1
#
DISCID=8b06700a
DTITLE=Various Artist - Bad Boy Country
DYEAR=2003
DGENRE=Country
TTITLE0=Freddy Fender - Wasted Days And Wasted Nights
TTITLE1=Billy 'Crash' Craddock - Rub It In
TTITLE2=George Jones - White Lightnin'
TTITLE3=Jerry Lee Lewis - Me And Bobby McGee
TTITLE4=Webb Pierce - I Ain't Never
TTITLE5=Faron Young - It's Four In The Morning
TTITLE6=Don Williams - Tulsa Time
TTITLE7=Mel Tillis - Life Turned Her That Way
TTITLE8=Tom T. Hall - A Week In A Country Jail
TTITLE9=Dave Dudley - The Pool Shark
EXTD=
EXTT0=
EXTT1=
EXTT2=
EXTT3=
EXTT4=
EXTT5=
EXTT6=
EXTT7=
EXTT8=
EXTT9=
PLAYORDER=
